<svg width="32" height="32" viewBox="0 0 32 32" fill="none" xmlns="http://www.w3.org/2000/svg">
  <!-- Outer circle representing completeness and integrity -->
  <circle cx="16" cy="16" r="15" stroke="url(#gradient1)" stroke-width="2" fill="url(#bgGradient)"/>
  
  <!-- Scales of Justice -->
  <g transform="translate(16, 6)">
    <!-- Central pillar -->
    <rect x="-0.5" y="0" width="1" height="16" fill="url(#gradient2)"/>
    
    <!-- Crossbeam -->
    <rect x="-8" y="3" width="16" height="1" fill="url(#gradient2)"/>
    
    <!-- Left scale -->
    <circle cx="-6" cy="6" r="3" stroke="url(#gradient2)" stroke-width="1.5" fill="none"/>
    <path d="M-9 6 L-3 6" stroke="url(#gradient2)" stroke-width="1"/>
    <path d="M-6 3 L-6 9" stroke="url(#gradient2)" stroke-width="1"/>
    
    <!-- Right scale -->
    <circle cx="6" cy="6" r="3" stroke="url(#gradient2)" stroke-width="1.5" fill="none"/>
    <path d="M3 6 L9 6" stroke="url(#gradient2)" stroke-width="1"/>
    <path d="M6 3 L6 9" stroke="url(#gradient2)" stroke-width="1"/>
    
    <!-- Connecting chains -->
    <path d="M-6 3 Q-6 4 -6 4.5 Q-6 5 -6 5.5" stroke="url(#gradient2)" stroke-width="0.8" fill="none"/>
    <path d="M6 3 Q6 4 6 4.5 Q6 5 6 5.5" stroke="url(#gradient2)" stroke-width="0.8" fill="none"/>
  </g>
  
  <!-- Blockchain links at bottom -->
  <g transform="translate(16, 24)">
    <rect x="-6" y="-2" width="3" height="3" rx="0.5" stroke="url(#gradient3)" stroke-width="1" fill="none"/>
    <rect x="-1" y="-2" width="3" height="3" rx="0.5" stroke="url(#gradient3)" stroke-width="1" fill="none"/>
    <rect x="4" y="-2" width="3" height="3" rx="0.5" stroke="url(#gradient3)" stroke-width="1" fill="none"/>
    <line x1="-3" y1="-0.5" x2="-1" y2="-0.5" stroke="url(#gradient3)" stroke-width="1"/>
    <line x1="2" y1="-0.5" x2="4" y2="-0.5" stroke="url(#gradient3)" stroke-width="1"/>
  </g>
  
  <!-- Gradient definitions -->
  <defs>
    <linearGradient id="gradient1" x1="0%" y1="0%" x2="100%" y2="100%">
      <stop offset="0%" style="stop-color:#0D9488;stop-opacity:1" />
      <stop offset="100%" style="stop-color:#0F766E;stop-opacity:1" />
    </linearGradient>
    
    <linearGradient id="gradient2" x1="0%" y1="0%" x2="100%" y2="100%">
      <stop offset="0%" style="stop-color:#0D9488;stop-opacity:1" />
      <stop offset="100%" style="stop-color:#134E4A;stop-opacity:1" />
    </linearGradient>
    
    <linearGradient id="gradient3" x1="0%" y1="0%" x2="100%" y2="100%">
      <stop offset="0%" style="stop-color:#14B8A6;stop-opacity:1" />
      <stop offset="100%" style="stop-color:#0D9488;stop-opacity:1" />
    </linearGradient>
    
    <radialGradient id="bgGradient" cx="50%" cy="50%" r="50%">
      <stop offset="0%" style="stop-color:#F0FDFA;stop-opacity:0.8" />
      <stop offset="100%" style="stop-color:#CCFBF1;stop-opacity:0.3" />
    </radialGradient>
  </defs>
</svg>